<svg width="1024" height="1024" viewBox="0 0 1024 1024" fill="none" xmlns="http://www.w3.org/2000/svg">
<g clip-path="url(#clip0_984_134)">
<rect width="1024" height="1024" fill="white"/>
<rect width="1024" height="1024" rx="150" fill="#0F0F0F"/>
<path d="M518.573 114C621.702 114 706.219 221.95 713.918 325.758C744.284 348.023 764 383.957 764 424.497C764 492.075 709.217 546.857 641.64 546.857C617.766 546.857 595.49 540.019 576.661 528.195C558.307 533.886 538.798 536.952 518.573 536.952C494.872 536.952 472.154 532.742 451.125 525.031C431.335 538.79 407.29 546.857 381.36 546.857C313.783 546.857 259 492.075 259 424.497C259 377.592 285.392 336.851 324.137 316.314C336.064 215.508 418.569 114 518.573 114Z" fill="#C6FF1A"/>
<path d="M662 739.507C662 821.798 593.743 910.398 511.291 910.398C428.839 910.398 362 821.798 362 739.507C362 657.217 428.839 612.398 511.291 612.398C593.743 612.398 662 657.217 662 739.507Z" fill="#C6FF1A"/>
</g>
<defs>
<clipPath id="clip0_984_134">
<rect width="1024" height="1024" fill="white"/>
</clipPath>
</defs>
</svg>
